<svg width="35" height="24" viewBox="0 0 35 24" fill="none" xmlns="http://www.w3.org/2000/svg">
<rect width="35" height="24" rx="2" fill="white"/>
<path d="M31.4933 10.5729L31.5 10.5656H30.4538L29.7931 12.8557H29.7581L28.9996 10.5656H27.7563L29.2522 14.345L28.6273 15.4969V15.5247H29.6034L31.4933 10.5729Z" fill="black"/>
<path d="M19.8955 10.5656H18.7859V14.3311H19.8955V10.5656Z" fill="black"/>
<path d="M27.5383 13.3894V11.8162C27.5383 10.9591 27.0324 10.4883 26.1403 10.4883C25.5709 10.4883 25.1781 10.5868 24.4612 10.8044L24.6577 11.6687C25.311 11.3738 25.5987 11.2475 25.9009 11.2475C26.2659 11.2475 26.4279 11.5073 26.4279 11.9081V11.9359C25.1563 12.1746 24.7628 12.3082 24.5175 12.5542C24.3349 12.7367 24.2576 12.9966 24.2576 13.2988C24.2576 14.0223 24.8197 14.4085 25.3461 14.4085C25.7395 14.4085 26.0556 14.261 26.4842 13.9376L26.5615 14.3311H27.6712L27.5383 13.3894ZM26.4286 13.4178C26.1337 13.5792 25.965 13.6427 25.7686 13.6427C25.5015 13.6427 25.3328 13.4668 25.3328 13.1864C25.3328 13.0812 25.354 12.9754 25.438 12.8914C25.5716 12.7579 25.8315 12.6593 26.4286 12.5191V13.4178Z" fill="black"/>
<path d="M22.6564 10.4883C22.249 10.4883 21.9329 10.643 21.5745 10.938V10.5657H20.4648V15.5247H21.5745V14.2954C21.7855 14.3516 21.9819 14.38 22.2206 14.38C23.2112 14.38 24.1033 13.6493 24.1033 12.3498C24.1033 11.184 23.4572 10.4883 22.6564 10.4883ZM21.9534 13.6843C21.8271 13.6843 21.7074 13.6705 21.5738 13.6281V11.5913C21.806 11.43 21.9951 11.3526 22.2338 11.3526C22.6484 11.3526 22.9784 11.6826 22.9784 12.3856C22.9791 13.2843 22.4944 13.6843 21.9534 13.6843Z" fill="black"/>
<path d="M9.3796 8.62605H4.62156C4.00193 8.62605 3.5 9.1326 3.5 9.75686V14.5552C3.5 15.1795 4.00193 15.6861 4.62156 15.6861H9.3796C9.99923 15.6861 10.5005 15.1795 10.5005 14.5552V9.75686C10.5012 9.13194 9.99923 8.62605 9.3796 8.62605Z" fill="#1677FF"/>
<path d="M9.26379 13.0593C8.98406 12.9648 8.60779 12.8199 8.18918 12.6672C8.44048 12.2261 8.64151 11.7242 8.77377 11.1786H7.39364V10.6773H9.08392V10.3976H7.39364V9.56172H6.70391C6.58289 9.56172 6.58289 9.68208 6.58289 9.68208V10.3969H4.87344V10.6767H6.58289V11.1779H5.17102V11.4577H7.90879C7.80894 11.8055 7.67403 12.1328 7.51466 12.4298C6.62654 12.1342 5.67824 11.8948 5.08307 12.0422C4.70216 12.1368 4.45682 12.3054 4.31266 12.4827C3.65136 13.2941 4.12551 14.5267 5.52217 14.5267C6.34813 14.5267 7.14367 14.0625 7.76 13.2974C8.67987 13.7431 10.5004 14.5089 10.5004 14.5089V13.4177C10.5011 13.4177 10.2723 13.3992 9.26379 13.0593ZM5.39189 14.0552C4.30274 14.0552 3.98069 13.1903 4.51898 12.7168C4.69885 12.5567 5.02686 12.4787 5.20144 12.4615C5.84819 12.3974 6.44733 12.646 7.15425 12.9939C6.65762 13.6472 6.02476 14.0552 5.39189 14.0552Z" fill="white"/>
<path d="M14.9716 9.37859H13.4824L11.8179 14.331H12.8435L13.1246 13.3616H14.8876L15.1548 14.331H16.4681L14.9716 9.37859ZM13.356 12.5535L14.016 10.2707H14.0438L14.6687 12.5535H13.356Z" fill="black"/>
<path d="M18.0266 9.20269H16.917V14.3304H18.0266V9.20269Z" fill="black"/>
<path d="M18.7012 9.65962C18.7012 10.0247 18.9683 10.2707 19.3406 10.2707C19.713 10.2707 19.9801 10.0247 19.9801 9.65962C19.9801 9.30119 19.713 9.04858 19.3406 9.04858C18.9683 9.04858 18.7012 9.30119 18.7012 9.65962Z" fill="#1677FF"/>
</svg>
