<svg width="35" height="24" viewBox="0 0 35 24" xmlns="http://www.w3.org/2000/svg">
  <defs>
    <linearGradient id="paint0_linear_553_87" x1="2326" y1="786.092" x2="172.39" y2="1460.5" gradientUnits="userSpaceOnUse" gradientTransform="matrix(1, 0, 0, 1, -19.999968, -88.000418)">
      <stop stop-color="#9AE8FC"/>
      <stop offset="1" stop-color="#83F69D"/>
    </linearGradient>
  </defs>
  <rect width="35" height="24" rx="2" fill="white" transform="matrix(0.9999999999999999, 0, 0, 0.9999999999999999, -7.105427357601002e-15, -3.552713678800501e-15)"/>
  <path fill-rule="evenodd" clip-rule="evenodd" d="M 18.582 20.627 C 14.524 21.303 6.834 19.657 6.078 16.26 C 5.323 12.862 10.109 9.212 17.035 6.696 C 23.962 4.179 29 5.689 29 10.345 C 29 15.001 22.641 19.951 18.582 20.627 Z M 27.302 21.179 C 26.372 21.523 25.371 21.602 25.036 21.068 C 24.702 20.535 25.282 19.614 26.29 18.753 C 27.299 17.893 28.236 17.838 28.521 18.633 C 28.806 19.429 28.231 20.835 27.302 21.179 Z" fill="url(#paint0_linear_553_87)" transform="matrix(0.9999999999999999, 0, 0, 0.9999999999999999, -7.105427357601002e-15, -3.552713678800501e-15)"/>
  <path d="M 17.575 13.538 C 17.126 13.538 16.762 13.175 16.762 12.726 L 18.387 12.726 C 18.387 13.175 18.024 13.538 17.575 13.538 Z M 21.367 12.334 C 21.259 12.768 21.001 13.151 20.657 13.393 C 20.452 13.916 20.157 14.425 19.803 14.852 L 19.799 14.856 C 18.454 16.419 16.173 16.272 15.08 14.854 C 14.707 14.398 14.412 13.868 14.201 13.355 C 13.859 13.13 13.594 12.747 13.486 12.314 C 13.29 11.516 13.363 10.923 13.658 10.52 L 13.651 10.308 C 13.651 10.176 13.649 10.076 13.642 9.871 L 13.642 9.86 C 13.633 9.513 13.632 9.343 13.646 9.134 C 13.73 7.836 14.432 7.04 16.168 6.767 L 16.497 6.717 C 16.987 6.667 18.01 6.463 19.553 6.105 C 19.75 6.059 19.938 6.207 19.94 6.408 C 19.945 6.802 19.954 7.093 19.963 7.245 C 20.531 7.588 20.893 8.107 21.083 8.753 C 21.228 9.244 21.258 9.688 21.241 10.287 C 21.241 10.308 21.241 10.308 21.24 10.32 L 21.24 10.558 C 21.418 10.788 21.497 11.077 21.502 11.408 C 21.505 11.641 21.473 11.876 21.414 12.14 C 21.4 12.2 21.39 12.243 21.367 12.334 Z M 15.574 14.463 C 16.435 15.579 18.242 15.696 19.319 14.447 C 19.648 14.05 19.921 13.567 20.102 13.076 C 20.127 13.009 20.174 12.952 20.236 12.915 C 20.481 12.768 20.676 12.496 20.755 12.182 C 20.776 12.095 20.786 12.056 20.798 12.002 C 20.847 11.782 20.873 11.592 20.871 11.418 C 20.867 11.183 20.811 11.009 20.7 10.896 C 20.642 10.837 20.609 10.757 20.609 10.675 L 20.609 10.311 L 20.61 10.269 C 20.626 9.731 20.599 9.343 20.477 8.931 C 20.317 8.386 20.014 7.975 19.525 7.721 C 19.446 7.681 19.388 7.609 19.365 7.524 C 19.339 7.428 19.325 7.204 19.316 6.806 C 17.957 7.117 17.044 7.295 16.577 7.342 L 16.265 7.39 C 14.827 7.616 14.341 8.166 14.276 9.174 C 14.264 9.358 14.264 9.515 14.273 9.842 L 14.273 9.852 C 14.28 10.063 14.282 10.168 14.282 10.298 L 14.292 10.617 C 14.295 10.699 14.266 10.778 14.211 10.839 C 14.001 11.07 13.932 11.482 14.099 12.162 C 14.176 12.47 14.373 12.737 14.605 12.862 C 14.671 12.898 14.722 12.956 14.749 13.025 C 14.939 13.513 15.218 14.027 15.574 14.463 Z M 16.221 11.373 C 15.996 11.373 15.814 11.1 15.814 10.764 C 15.814 10.428 15.996 10.155 16.221 10.155 C 16.445 10.155 16.627 10.428 16.627 10.764 C 16.627 11.1 16.445 11.373 16.221 11.373 Z M 18.794 11.373 C 18.569 11.373 18.387 11.1 18.387 10.764 C 18.387 10.428 18.569 10.155 18.794 10.155 C 19.018 10.155 19.2 10.428 19.2 10.764 C 19.2 11.1 19.018 11.373 18.794 11.373 Z M 11.142 7.585 C 11.142 7.772 10.99 7.923 10.803 7.923 C 10.616 7.923 10.465 7.772 10.465 7.585 L 10.465 6.232 C 10.465 4.999 11.465 4 12.699 4 L 14.054 4 C 14.241 4 14.392 4.151 14.392 4.338 C 14.392 4.525 14.241 4.676 14.054 4.676 L 12.699 4.676 C 11.839 4.676 11.142 5.373 11.142 6.232 L 11.142 7.585 Z M 14.054 17.394 C 14.241 17.394 14.392 17.546 14.392 17.732 C 14.392 17.919 14.241 18.071 14.054 18.071 L 12.699 18.071 C 11.465 18.071 10.465 17.071 10.465 15.838 L 10.465 14.485 C 10.465 14.298 10.616 14.147 10.803 14.147 C 10.99 14.147 11.142 14.298 11.142 14.485 L 11.142 15.838 C 11.142 16.698 11.839 17.394 12.699 17.394 L 14.054 17.394 Z M 20.96 4.676 C 20.774 4.676 20.622 4.525 20.622 4.338 C 20.622 4.151 20.774 4 20.96 4 L 22.315 4 C 23.549 4 24.549 4.999 24.549 6.232 L 24.549 7.585 C 24.549 7.772 24.398 7.923 24.211 7.923 C 24.024 7.923 23.872 7.772 23.872 7.585 L 23.872 6.232 C 23.872 5.373 23.175 4.676 22.315 4.676 L 20.96 4.676 Z M 23.872 14.485 C 23.872 14.298 24.024 14.147 24.211 14.147 C 24.398 14.147 24.549 14.298 24.549 14.485 L 24.549 15.838 C 24.549 17.071 23.549 18.071 22.315 18.071 L 20.96 18.071 C 20.774 18.071 20.622 17.919 20.622 17.732 C 20.622 17.546 20.774 17.394 20.96 17.394 L 22.315 17.394 C 23.175 17.394 23.872 16.698 23.872 15.838 L 23.872 14.485 Z" fill="#0C0B41" transform="matrix(0.9999999999999999, 0, 0, 0.9999999999999999, -7.105427357601002e-15, -3.552713678800501e-15)"/>
</svg>