<svg width="35" height="24" viewBox="0 0 35 24" fill="none" xmlns="http://www.w3.org/2000/svg">
<rect width="35" height="24" rx="2" fill="white"/>
<g clip-path="url(#clip0_553_44)">
<path fill-rule="evenodd" clip-rule="evenodd" d="M10.686 19.6612L10.4637 19.4687C9.92374 19.0036 9.82846 18.1536 10.3208 17.6082L16.1013 10.936C16.5618 10.3906 17.4035 10.2944 17.9434 10.7916L18.1658 10.9841C18.7057 11.4492 18.801 12.2993 18.3087 12.8446L12.5282 19.5169C12.0676 20.0622 11.2577 20.1264 10.686 19.6612Z" fill="url(#paint0_linear_553_44)"/>
<path opacity="0.4" fill-rule="evenodd" clip-rule="evenodd" d="M15.3232 12.0908L15.2121 11.9624L14.3228 12.9889L14.418 13.1012C15.9426 14.641 15.2915 16.1968 14.9421 16.7421L15.0692 16.5977C15.2756 16.3571 15.5932 15.9883 15.9267 15.5873C16.2761 14.9778 16.7684 13.5343 15.3232 12.0908Z" fill="url(#paint1_linear_553_44)"/>
<path opacity="0.4" fill-rule="evenodd" clip-rule="evenodd" d="M17.2288 14.0957L17.4671 13.823C17.4829 13.7909 17.5147 13.7588 17.5306 13.7268C17.2765 14.0155 17.0065 14.3202 16.7524 14.6249C16.943 14.4164 17.1018 14.24 17.2288 14.0957Z" fill="url(#paint2_radial_553_44)"/>
<path fill-rule="evenodd" clip-rule="evenodd" d="M18.3404 11.1444L12.5599 4.47217C12.0994 3.92684 11.2577 3.8306 10.7177 4.32782L10.4954 4.52028C9.95548 4.98542 9.86019 5.83549 10.3525 6.38081L15.2278 11.9624L15.339 12.0907C16.7841 13.5503 16.2918 14.9938 15.9266 15.6033C16.2124 15.2665 16.4983 14.9296 16.7682 14.6249C17.0223 14.3202 17.2923 14.0154 17.5464 13.7267C17.8005 13.438 18.0387 13.1653 18.1975 12.9889C18.7533 12.4436 18.8327 11.6897 18.3404 11.1444Z" fill="url(#paint3_linear_553_44)"/>
<path fill-rule="evenodd" clip-rule="evenodd" d="M18.0229 19.6612L17.8006 19.4687C17.2607 19.0036 17.1654 18.1536 17.6577 17.6082L23.4382 10.936C23.8987 10.3906 24.7404 10.2944 25.2803 10.7916L25.5027 10.9841C26.0426 11.4492 26.1379 12.2993 25.6456 12.8446L19.8651 19.5169C19.4045 20.0622 18.5946 20.1264 18.0229 19.6612Z" fill="url(#paint4_linear_553_44)"/>
<path opacity="0.4" fill-rule="evenodd" clip-rule="evenodd" d="M22.7236 12.0265L22.6125 11.8982L21.7231 12.9247L21.8184 13.037C23.343 14.5767 22.6919 16.1325 22.3425 16.6779L22.4695 16.5335C22.676 16.2929 22.9936 15.924 23.3271 15.5231C23.6765 14.9136 24.1688 13.47 22.7236 12.0265Z" fill="url(#paint5_linear_553_44)"/>
<path opacity="0.4" fill-rule="evenodd" clip-rule="evenodd" d="M24.5497 14.0956L24.7879 13.823C24.8038 13.7909 24.8355 13.7588 24.8514 13.7268C24.5973 14.0155 24.3273 14.3202 24.0732 14.6249C24.2638 14.4164 24.4385 14.24 24.5497 14.0956Z" fill="url(#paint6_radial_553_44)"/>
<path fill-rule="evenodd" clip-rule="evenodd" d="M25.6612 11.1444L19.8807 4.47217C19.4202 3.92684 18.5785 3.8306 18.0385 4.32782L17.8162 4.52028C17.2763 4.98542 17.181 5.83549 17.6733 6.38081L22.5486 11.9624L22.6598 12.0907C24.1049 13.5503 23.6126 14.9938 23.2474 15.6033C23.5332 15.2665 23.8191 14.9296 24.089 14.6249C24.3431 14.3202 24.6131 14.0154 24.8672 13.7267C25.1213 13.438 25.3595 13.1653 25.5183 12.9889C26.0741 12.4436 26.1535 11.6897 25.6612 11.1444Z" fill="url(#paint7_linear_553_44)"/>
</g>
<defs>
<linearGradient id="paint0_linear_553_44" x1="12.4915" y1="21.7438" x2="20.5439" y2="17.8781" gradientUnits="userSpaceOnUse">
<stop stop-color="#1FADC3"/>
<stop offset="0.7072" stop-color="#36B98F"/>
</linearGradient>
<linearGradient id="paint1_linear_553_44" x1="15.3085" y1="15.4341" x2="16.8088" y2="15.2178" gradientUnits="userSpaceOnUse">
<stop stop-color="#123F06" stop-opacity="0.01"/>
<stop offset="1" stop-color="#123F06"/>
</linearGradient>
<radialGradient id="paint2_radial_553_44" cx="0" cy="0" r="1" gradientUnits="userSpaceOnUse" gradientTransform="translate(14.0435 14.9295) scale(3.87197 4.4693)">
<stop offset="0.4185" stop-color="#123F06" stop-opacity="0.01"/>
<stop offset="1" stop-color="#123F06"/>
</radialGradient>
<linearGradient id="paint3_linear_553_44" x1="7.00485" y1="12.8453" x2="16.7545" y2="16.1811" gradientUnits="userSpaceOnUse">
<stop stop-color="#9FDB57"/>
<stop offset="1" stop-color="#71CA5E"/>
</linearGradient>
<linearGradient id="paint4_linear_553_44" x1="19.8214" y1="21.7478" x2="27.8739" y2="17.8822" gradientUnits="userSpaceOnUse">
<stop stop-color="#1FADC3"/>
<stop offset="0.7072" stop-color="#36B98F"/>
</linearGradient>
<linearGradient id="paint5_linear_553_44" x1="22.7089" y1="15.3699" x2="24.2092" y2="15.1536" gradientUnits="userSpaceOnUse">
<stop stop-color="#123F06" stop-opacity="0.01"/>
<stop offset="1" stop-color="#123F06"/>
</linearGradient>
<radialGradient id="paint6_radial_553_44" cx="0" cy="0" r="1" gradientUnits="userSpaceOnUse" gradientTransform="translate(21.3709 14.9295) scale(3.87197 4.4693)">
<stop offset="0.4185" stop-color="#123F06" stop-opacity="0.01"/>
<stop offset="1" stop-color="#123F06"/>
</radialGradient>
<linearGradient id="paint7_linear_553_44" x1="14.3304" y1="12.8482" x2="24.0801" y2="16.1841" gradientUnits="userSpaceOnUse">
<stop stop-color="#9FDB57"/>
<stop offset="1" stop-color="#71CA5E"/>
</linearGradient>
<clipPath id="clip0_553_44">
<rect width="16" height="16" fill="white" transform="translate(10 4)"/>
</clipPath>
</defs>
</svg>
