<svg width="35" height="24" viewBox="0 0 35 24" fill="none" xmlns="http://www.w3.org/2000/svg">
<rect width="35" height="24" rx="2" fill="white"/>
<path fill-rule="evenodd" clip-rule="evenodd" d="M7.43012 13.9293V11.8733C7.43012 11.2901 7.10717 11.0132 6.56483 11.0132C6.11388 11.0132 5.72391 11.2725 5.55326 11.5316C5.44357 11.2076 5.16936 11.0132 4.73672 11.0132C4.28577 11.0132 3.8958 11.2842 3.7739 11.4551V11.084H3V13.9293H3.7739V12.0147C3.8897 11.8557 4.11516 11.6789 4.38326 11.6789C4.70014 11.6789 4.82201 11.8674 4.82201 12.1326V13.9293H5.60201V12.0088C5.7117 11.8557 5.93716 11.6789 6.21137 11.6789C6.52825 11.6789 6.65012 11.8674 6.65012 12.1326L6.65015 13.9293H7.43012ZM9.55684 14C8.58795 14 8.00293 13.3166 8.00293 12.5037C8.00293 11.6966 8.58792 11.0133 9.55684 11.0133C10.5318 11.0133 11.1168 11.6966 11.1168 12.5037C11.1168 13.3166 10.5319 14 9.55684 14ZM9.55684 13.3343C10.0382 13.3343 10.3125 12.9514 10.3125 12.5037C10.3125 12.0619 10.0383 11.6789 9.55684 11.6789C9.07541 11.6789 8.80731 12.0619 8.80731 12.5037C8.80731 12.9514 9.07544 13.3343 9.55684 13.3343ZM14.4501 13.9293V11.9205C14.4501 11.3667 14.1393 11.0132 13.4934 11.0132C13.012 11.0132 12.6525 11.2371 12.4636 11.4551V11.084H11.6896V13.9293H12.4636V12.0147C12.5915 11.8439 12.8292 11.6789 13.1339 11.6789C13.4629 11.6789 13.6762 11.8145 13.6762 12.2091V13.9293H14.4501ZM16.5829 14C15.614 14 15.029 13.3166 15.029 12.5037C15.029 11.6966 15.614 11.0133 16.5829 11.0133C17.5579 11.0133 18.1429 11.6966 18.1429 12.5037C18.1429 13.3166 17.5579 14 16.5829 14ZM16.5829 13.3343C17.0643 13.3343 17.3385 12.9514 17.3385 12.5037C17.3385 12.0619 17.0643 11.6789 16.5829 11.6789C16.1015 11.6789 15.8334 12.0619 15.8334 12.5037C15.8334 12.9514 16.1015 13.3343 16.5829 13.3343ZM19.4896 13.0162C19.6176 13.1988 19.904 13.3343 20.1538 13.3343C20.6047 13.3343 20.9033 13.0044 20.9033 12.5096C20.9033 12.0147 20.6047 11.6789 20.1538 11.6789C19.904 11.6789 19.6176 11.8203 19.4896 12.0088V13.0162ZM19.4896 13.9293H18.7157V10H19.4896V11.4492C19.7211 11.1605 20.0502 11.0132 20.3976 11.0132C21.1471 11.0132 21.7016 11.5788 21.7016 12.5096C21.7016 13.458 21.141 14 20.3976 14C20.0441 14 19.7211 13.8468 19.4896 13.564V13.9293ZM24.8277 13.9293H24.0538V13.6348C23.8527 13.8645 23.5054 14 23.1215 14C22.6522 14 22.0977 13.6937 22.0977 13.0574C22.0977 12.3918 22.6523 12.1385 23.1215 12.1385C23.5115 12.1385 23.8588 12.2622 24.0538 12.486V12.1031C24.0538 11.8144 23.7979 11.6259 23.4079 11.6259C23.091 11.6259 22.7985 11.7379 22.5486 11.9617L22.2561 11.461C22.6157 11.1546 23.0788 11.0133 23.5419 11.0133C24.2122 11.0133 24.8277 11.2725 24.8277 12.0913L24.8277 13.9293ZM23.4322 13.4934C23.6821 13.4934 23.9258 13.4109 24.0538 13.2459V12.8925C23.9258 12.7275 23.6821 12.6451 23.4322 12.6451C23.1276 12.6451 22.8777 12.7982 22.8777 13.0751C22.8777 13.3402 23.1275 13.4934 23.4322 13.4934ZM28.356 13.9293V11.9205C28.356 11.3667 28.0452 11.0132 27.3992 11.0132C26.9178 11.0132 26.5583 11.2371 26.3694 11.4551V11.084H25.5955V13.9293H26.3694V12.0147C26.4974 11.8439 26.735 11.6789 27.0397 11.6789C27.3688 11.6789 27.5821 11.8145 27.5821 12.2091V13.9293H28.356ZM32 13.9293L30.7996 12.3741L31.9635 11.084H31.0128L29.8977 12.3505V10H29.1238V13.9293H29.8977V13.1988L30.2511 12.8336L31.0311 13.9293H32Z" fill="black"/>
</svg>
