<svg width="35" height="24" viewBox="0 0 35 24" fill="none" xmlns="http://www.w3.org/2000/svg">
<rect width="35" height="24" rx="2" fill="white"/>
<path d="M15.657 16.6607L15.8483 15.446L15.4223 15.4361H13.3881L14.8017 6.47225C14.8061 6.44519 14.8204 6.41996 14.8412 6.40204C14.8621 6.38413 14.8888 6.37425 14.9166 6.37425H18.3466C19.4853 6.37425 20.2711 6.61121 20.6814 7.07891C20.8738 7.29832 20.9963 7.52759 21.0556 7.77991C21.1177 8.04467 21.1188 8.36097 21.0581 8.74676L21.0537 8.77492V9.02211L21.2461 9.13109C21.4081 9.21702 21.5367 9.31539 21.6354 9.42802C21.8001 9.61561 21.9065 9.85403 21.9515 10.1367C21.9979 10.4274 21.9825 10.7733 21.9065 11.165C21.8187 11.6155 21.6768 12.0079 21.4852 12.3289C21.3089 12.6248 21.0844 12.8701 20.8179 13.0603C20.5633 13.2409 20.2609 13.3781 19.919 13.4659C19.5877 13.5521 19.21 13.5957 18.7957 13.5957H18.5287C18.3379 13.5957 18.1524 13.6644 18.0069 13.7877C17.861 13.9134 17.7644 14.0852 17.7348 14.2732L17.7147 14.3826L17.3768 16.5236L17.3614 16.6022C17.3574 16.6271 17.3505 16.6396 17.3403 16.648C17.3311 16.6556 17.318 16.6607 17.3051 16.6607H15.657Z" fill="#253B80"/>
<path d="M21.4282 8.80357C21.418 8.86903 21.4063 8.93594 21.3931 9.00469C20.9407 11.3271 19.3932 12.1294 17.4167 12.1294H16.4104C16.1687 12.1294 15.965 12.3049 15.9273 12.5433L15.4121 15.8111L15.2662 16.7373C15.2416 16.8938 15.3624 17.035 15.5203 17.035H17.3052C17.5166 17.035 17.6961 16.8814 17.7293 16.673L17.7469 16.5822L18.083 14.4496L18.1046 14.3326C18.1374 14.1235 18.3173 13.9699 18.5287 13.9699H18.7957C20.5249 13.9699 21.8787 13.2678 22.2744 11.2361C22.4397 10.3873 22.3541 9.67864 21.9167 9.18022C21.7844 9.02992 21.6202 8.90523 21.4282 8.80357Z" fill="#179BD7"/>
<path d="M20.9548 8.61504C20.8858 8.59493 20.8144 8.57664 20.7412 8.56019C20.6678 8.5441 20.5924 8.52984 20.5149 8.51741C20.2436 8.47352 19.9463 8.45268 19.6278 8.45268H16.9393C16.8731 8.45268 16.8103 8.46767 16.754 8.49474C16.63 8.55434 16.5379 8.67173 16.5155 8.81543L15.9435 12.4378L15.9271 12.5435C15.9648 12.3051 16.1685 12.1296 16.4102 12.1296H17.4165C19.393 12.1296 20.9406 11.3269 21.3929 9.00485C21.4064 8.9361 21.4178 8.86919 21.428 8.80374C21.3136 8.74303 21.1896 8.6911 21.0561 8.64685C21.0232 8.63588 20.9892 8.62528 20.9548 8.61504Z" fill="#222D65"/>
<path d="M16.5156 8.81534C16.5379 8.67163 16.6301 8.55425 16.754 8.49501C16.8107 8.46794 16.8733 8.45295 16.9394 8.45295H19.6279C19.9464 8.45295 20.2437 8.4738 20.5149 8.51768C20.5925 8.53011 20.6679 8.54437 20.7414 8.56046C20.8145 8.57692 20.8858 8.59521 20.9549 8.61531C20.9893 8.62555 21.0233 8.63615 21.0565 8.64676C21.19 8.69101 21.314 8.7433 21.4284 8.80364C21.5631 7.94539 21.4274 7.36105 20.9634 6.83191C20.4518 6.24939 19.5284 6 18.3469 6H14.9168C14.6755 6 14.4697 6.17552 14.4323 6.41431L13.0037 15.4703C12.9755 15.6494 13.1137 15.8111 13.2943 15.8111H15.412L15.9437 12.4377L16.5156 8.81534Z" fill="#253B80"/>
</svg>
