<svg width="37" height="24" viewBox="0 0 37 24" fill="none" xmlns="http://www.w3.org/2000/svg">
<rect x="1" width="35" height="24" rx="2" fill="white"/>
<path fill-rule="evenodd" clip-rule="evenodd" d="M20.4108 13.2639V15.5154H19.3271V9.45586H21.713C22.4097 9.45586 22.963 9.63204 23.3727 9.9844C23.7825 10.3368 23.9874 10.8029 23.9874 11.3828C23.9874 11.9765 23.7868 12.4385 23.3856 12.7686C22.9844 13.0988 22.4226 13.2639 21.7001 13.2639H20.4108ZM20.3795 12.3762H21.6773C22.0616 12.3762 22.3547 12.2879 22.5568 12.1115C22.7589 11.9351 22.8599 11.6801 22.8599 11.3467C22.8599 11.0188 22.7575 10.757 22.5525 10.5611C22.3476 10.3652 22.0658 10.2645 21.7072 10.259H20.3795V12.3762ZM27.3889 15.0846C27.4233 15.2789 27.4633 15.4191 27.509 15.5051H28.5725V15.4344C28.4553 15.1928 28.3967 14.8694 28.3967 14.4641V12.4319C28.3881 11.9515 28.2223 11.5788 27.8993 11.3137C27.5762 11.0486 27.1431 10.916 26.5999 10.916C26.2426 10.916 25.9188 10.9771 25.6286 11.0992C25.3385 11.2214 25.1091 11.3901 24.9404 11.6052C24.7717 11.8204 24.6874 12.0515 24.6874 12.2986H25.7294C25.7294 12.1209 25.8052 11.9744 25.9567 11.8592C26.1082 11.744 26.3026 11.6864 26.5399 11.6864C26.8144 11.6864 27.0187 11.7565 27.1531 11.8967C27.2875 12.0369 27.3547 12.2236 27.3547 12.4568V12.7525H26.7157C26.0325 12.7525 25.5071 12.8809 25.1398 13.1377C24.7724 13.3945 24.5887 13.7631 24.5887 14.2434C24.5887 14.6237 24.736 14.943 25.0304 15.2012C25.3249 15.4594 25.7051 15.5884 26.1711 15.5884C26.6514 15.5884 27.0573 15.4205 27.3889 15.0846ZM26.3764 14.7854C26.5829 14.7854 26.7771 14.7368 26.9592 14.6396C27.1412 14.5424 27.2781 14.4119 27.3699 14.248V13.3982H26.8065C26.4195 13.3982 26.1284 13.4635 25.9335 13.594C25.7385 13.7245 25.6411 13.9092 25.6411 14.148C25.6411 14.3424 25.7077 14.4973 25.841 14.6125C25.9743 14.7277 26.1528 14.7854 26.3764 14.7854ZM31.9786 10.989L31.0409 14.0582L30.065 10.989H28.9483L30.5679 15.4924L30.4187 15.8813C30.342 16.1015 30.2376 16.2583 30.1055 16.3517C29.9734 16.4451 29.7766 16.4918 29.5152 16.4918L29.3191 16.4793V17.2654C29.501 17.3155 29.6672 17.3406 29.8178 17.3406C30.4912 17.3406 30.9685 16.9601 31.2498 16.1991L33.0824 10.989H31.9786Z" fill="#212121"/>
<path fill-rule="evenodd" clip-rule="evenodd" d="M13.4071 12.9207V13.5511H12.8365V14.5295H12.1816V13.5511H10.3497V12.9662L10.3666 12.9139L12.208 10.341L12.2858 10.3015H12.8365V12.9207H13.4071ZM9.9671 13.8965V14.5295H7.05176L7.05731 14.4326C7.10577 13.5862 7.40652 13.2284 8.34353 12.6599C8.34248 12.6605 8.50734 12.5604 8.55461 12.5311C9.07167 12.2107 9.29447 11.9608 9.29447 11.5792C9.29447 11.1793 9.00685 10.9067 8.58243 10.9067C8.0916 10.9067 7.83913 11.2682 7.82531 11.8326L7.82313 11.9221H7.1777L7.17331 11.8349L7.16773 11.722C7.16773 10.8734 7.74598 10.3015 8.60565 10.3015C9.4462 10.3015 10.0026 10.8031 10.0026 11.5686C10.0026 12.267 9.66167 12.6106 8.70762 13.1704L8.68861 13.1814L8.62683 13.217C8.59277 13.2366 8.55526 13.2581 8.54025 13.2668C8.1516 13.492 7.95035 13.6605 7.856 13.8965H9.9671ZM12.1816 12.9194H11.1193L12.1816 11.3929V12.9194Z" fill="black" fill-opacity="0.87"/>
<path fill-rule="evenodd" clip-rule="evenodd" d="M3.91748 12.5C3.91748 9.09264 6.76463 6.32722 10.2728 6.32722C13.7809 6.32722 16.6281 9.09264 16.6281 12.5C16.6281 15.9074 13.7809 18.6728 10.2728 18.6728C6.76463 18.6728 3.91748 15.9074 3.91748 12.5ZM4.72452 12.5C4.72452 15.4707 7.21429 17.889 10.2728 17.889C13.3313 17.889 15.821 15.4707 15.821 12.5C15.821 9.52936 13.3313 7.11106 10.2728 7.11106C7.21429 7.11106 4.72452 9.52936 4.72452 12.5Z" fill="#8DC641"/>
</svg>
