<svg width="35" height="24" viewBox="0 0 35 24" fill="none" xmlns="http://www.w3.org/2000/svg">
<rect width="35" height="24" rx="2" fill="white"/>
<path d="M10.8277 5.00154H16.3435C17.1135 5.00154 17.5924 5.62912 17.4127 6.40163L14.8448 17.427C14.6635 18.1968 13.8926 18.8249 13.1221 18.8249H7.6069C6.83802 18.8249 6.35806 18.1968 6.53768 17.427L9.10674 6.40163C9.28636 5.62912 10.0568 5.00154 10.8277 5.00154Z" fill="#E21836"/>
<path d="M15.8843 5H22.2273C22.9971 5 22.65 5.62758 22.4689 6.40009L19.9013 17.4255C19.7211 18.1953 19.7773 18.8234 19.0059 18.8234H12.6629C11.8915 18.8234 11.4141 18.1953 11.5953 17.4255L14.1627 6.40009C14.345 5.62758 15.1139 5 15.8843 5Z" fill="#00447C"/>
<path d="M21.9758 5H27.4916C28.2626 5 28.7415 5.62758 28.5604 6.40009L25.9928 17.4255C25.8116 18.1953 25.0402 18.8234 24.2693 18.8234H18.7561C17.9846 18.8234 17.5061 18.1953 17.6868 17.4255L20.2548 6.40009C20.4344 5.62758 21.2044 5 21.9758 5Z" fill="#007B84"/>
<path d="M12.268 8.53332C11.7008 8.5391 11.5333 8.53332 11.4798 8.52068C11.4592 8.61842 11.0765 10.3841 11.0754 10.3855C10.993 10.7428 10.933 10.9974 10.7293 11.1618C10.6137 11.2574 10.4787 11.3035 10.3223 11.3035C10.0707 11.3035 9.92417 11.1786 9.89956 10.9417L9.89486 10.8604C9.89486 10.8604 9.97149 10.3819 9.97149 10.3792C9.97149 10.3792 10.3732 8.77021 10.4451 8.55752C10.4489 8.54542 10.45 8.5391 10.4509 8.53332C9.669 8.54018 9.53039 8.53332 9.52084 8.52068C9.5156 8.53803 9.49624 8.63778 9.49624 8.63778L9.08605 10.4513L9.05083 10.6051L8.98267 11.1082C8.98267 11.2574 9.01197 11.3792 9.07032 11.4822C9.2572 11.8087 9.79026 11.8577 10.0918 11.8577C10.4804 11.8577 10.8448 11.7751 11.0911 11.6244C11.5187 11.3718 11.6305 10.977 11.7303 10.6261L11.7765 10.446C11.7765 10.446 12.1903 8.77492 12.2606 8.55752C12.2633 8.54542 12.2644 8.5391 12.268 8.53332ZM13.676 9.88143C13.5763 9.88143 13.394 9.90563 13.2302 9.98589C13.1708 10.0164 13.1146 10.0516 13.0553 10.0867L13.1088 9.89353L13.0795 9.861C12.7322 9.93131 12.6545 9.94072 12.3337 9.98589L12.3069 10.0038C12.2696 10.3126 12.2365 10.5448 12.0985 11.1518C12.0459 11.3755 11.9913 11.6014 11.9366 11.8245L11.9514 11.8529C12.2801 11.8356 12.3799 11.8356 12.6655 11.8403L12.6887 11.8151C12.725 11.6292 12.7297 11.5856 12.8101 11.2091C12.8479 11.0305 12.9266 10.6382 12.9655 10.4985C13.0369 10.4654 13.1073 10.4329 13.1745 10.4329C13.3347 10.4329 13.3152 10.5726 13.309 10.6283C13.3021 10.7217 13.2438 11.0269 13.184 11.2889L13.144 11.458C13.1162 11.5829 13.0857 11.7043 13.0578 11.8282L13.0699 11.8529C13.394 11.8356 13.4928 11.8356 13.7695 11.8403L13.802 11.8151C13.852 11.5247 13.8667 11.447 13.9554 11.0242L14 10.8299C14.0867 10.4497 14.1303 10.2569 14.0647 10.0999C13.9953 9.92392 13.8289 9.88143 13.676 9.88143ZM15.2489 10.2795C15.0767 10.3126 14.9668 10.3346 14.8577 10.3489C14.7494 10.3662 14.6439 10.3819 14.4775 10.4051L14.4643 10.417L14.4522 10.4266C14.4348 10.5505 14.4227 10.6577 14.3997 10.7837C14.3803 10.9139 14.3503 11.062 14.3015 11.2746C14.2637 11.4375 14.2442 11.4942 14.2227 11.5515C14.2017 11.6087 14.1786 11.6644 14.1361 11.8245L14.1461 11.8393L14.1544 11.8529C14.3099 11.8455 14.4117 11.8402 14.5163 11.8393C14.6208 11.8355 14.729 11.8393 14.8965 11.8402L14.9112 11.8283L14.9269 11.8151C14.9511 11.6707 14.9547 11.6319 14.9695 11.5614C14.9842 11.4859 15.0094 11.3813 15.0714 11.1019C15.1007 10.9707 15.1334 10.8399 15.1638 10.706C15.1954 10.5726 15.2285 10.4412 15.2599 10.31L15.2552 10.2942L15.2489 10.2795ZM15.2526 9.74278C15.0961 9.65042 14.8214 9.67973 14.6365 9.80731C14.4522 9.93234 14.4312 10.1098 14.5872 10.2034C14.741 10.2932 15.0167 10.2664 15.2 10.1378C15.3839 10.0101 15.4069 9.8342 15.2526 9.74278ZM16.199 11.8818C16.5156 11.8818 16.8401 11.7946 17.0844 11.5356C17.2724 11.3256 17.3585 11.0132 17.3884 10.8845C17.4856 10.4581 17.4099 10.259 17.3148 10.1377C17.1704 9.95285 16.9153 9.89356 16.6506 9.89356C16.4914 9.89356 16.1123 9.90929 15.8161 10.1823C15.6034 10.3793 15.5051 10.6466 15.4458 10.9028C15.386 11.1639 15.3172 11.6339 15.7494 11.8088C15.8828 11.8661 16.075 11.8818 16.199 11.8818ZM16.1742 10.9223C16.2472 10.5994 16.3334 10.3283 16.5534 10.3283C16.7257 10.3283 16.7382 10.53 16.6616 10.854C16.6479 10.9259 16.585 11.1933 16.4998 11.3072C16.4404 11.3912 16.3701 11.4422 16.2924 11.4422C16.2693 11.4422 16.1317 11.4422 16.1296 11.238C16.1285 11.1372 16.1491 11.0342 16.1742 10.9223ZM18.1798 11.8403L18.2046 11.8152C18.2397 11.6292 18.2455 11.5855 18.3232 11.2091C18.362 11.0306 18.4424 10.6382 18.4802 10.4986C18.5517 10.4654 18.6209 10.4328 18.6903 10.4328C18.8494 10.4328 18.83 10.5725 18.8237 10.6282C18.8179 10.7217 18.7596 11.0268 18.6987 11.2888L18.6609 11.4579C18.632 11.583 18.6005 11.7042 18.5727 11.8282L18.5848 11.8529C18.9099 11.8356 19.0049 11.8356 19.2832 11.8403L19.3168 11.8152C19.3656 11.5246 19.3788 11.4469 19.4702 11.0242L19.5138 10.8298C19.6009 10.4496 19.645 10.257 19.5805 10.0999C19.5091 9.92396 19.3416 9.88147 19.1909 9.88147C19.091 9.88147 18.9077 9.90554 18.7449 9.98593C18.6867 10.0165 18.6283 10.0515 18.5711 10.0868L18.621 9.89357L18.5942 9.8609C18.2471 9.93135 18.1677 9.94076 17.8474 9.98593L17.8228 10.0038C17.7839 10.3126 17.7523 10.5447 17.6142 11.1518C17.5617 11.3755 17.5071 11.6014 17.4525 11.8246L17.4672 11.8529C17.7964 11.8356 17.8947 11.8356 18.1798 11.8403ZM20.5683 11.8529C20.5887 11.7531 20.7101 11.1618 20.7112 11.1618C20.7112 11.1618 20.8146 10.728 20.8209 10.7123C20.8209 10.7123 20.8534 10.6671 20.886 10.6492H20.9338C21.3854 10.6492 21.8954 10.6492 22.2951 10.3552C22.567 10.1535 22.753 9.85573 22.8359 9.49381C22.8574 9.40507 22.8733 9.29954 22.8733 9.194C22.8733 9.05539 22.8455 8.91826 22.7651 8.81111C22.5613 8.52595 22.1554 8.52071 21.6868 8.51856C21.6854 8.51856 21.4559 8.52071 21.4559 8.52071C20.8561 8.52811 20.6156 8.52595 20.5168 8.51385C20.5085 8.55755 20.4927 8.63526 20.4927 8.63526C20.4927 8.63526 20.2779 9.63094 20.2779 9.63255C20.2779 9.63255 19.7638 11.7495 19.7396 11.8492C20.2632 11.8429 20.4779 11.8429 20.5683 11.8529ZM20.9664 10.0841C20.9664 10.0841 21.1948 9.09048 21.1937 9.09424L21.2011 9.04329L21.2043 9.00444L21.2956 9.01385C21.2956 9.01385 21.7667 9.05431 21.7777 9.05539C21.9637 9.12732 22.0403 9.31271 21.9868 9.55471C21.938 9.77587 21.7945 9.9618 21.6102 10.0516C21.4584 10.1277 21.2725 10.134 21.0809 10.134H20.957L20.9664 10.0841ZM22.3886 10.9407C22.3282 11.198 22.2588 11.6681 22.6889 11.8356C22.826 11.8939 22.9489 11.9113 23.0738 11.9049C23.2057 11.8978 23.3279 11.8317 23.4411 11.7365C23.4309 11.7756 23.4207 11.8147 23.4105 11.854L23.4299 11.8791C23.7393 11.8661 23.8353 11.8661 24.1705 11.8686L24.2008 11.8455C24.2498 11.5578 24.2959 11.2784 24.4231 10.728C24.4851 10.4644 24.5469 10.2033 24.6105 9.94073L24.6005 9.91183C24.2545 9.97596 24.162 9.98967 23.8291 10.0369L23.8038 10.0574C23.8005 10.0842 23.797 10.1099 23.7937 10.1355C23.742 10.0519 23.667 9.98053 23.5512 9.93603C23.4032 9.87781 23.0555 9.95283 22.7567 10.2249C22.5467 10.4192 22.4458 10.6854 22.3886 10.9407ZM23.1154 10.9564C23.1894 10.6393 23.2745 10.371 23.495 10.371C23.6344 10.371 23.7078 10.4996 23.6929 10.719C23.6811 10.7737 23.6683 10.8314 23.6531 10.8966C23.6311 10.9909 23.6071 11.0843 23.5839 11.1779C23.5602 11.2419 23.5327 11.3022 23.5024 11.3424C23.4457 11.4228 23.3107 11.4727 23.233 11.4727C23.2109 11.4727 23.0749 11.4727 23.0702 11.2721C23.0691 11.1722 23.0897 11.0694 23.1154 10.9564ZM26.9107 9.90926L26.884 9.87874C26.5416 9.94811 26.4796 9.95914 26.165 10.0016L26.1419 10.0247C26.1408 10.0285 26.1398 10.0343 26.1382 10.0395L26.1372 10.0343C25.903 10.5746 25.9098 10.4581 25.7192 10.8834C25.7181 10.8641 25.7181 10.852 25.717 10.8314L25.6693 9.90926L25.6393 9.87874C25.2806 9.94811 25.2721 9.95914 24.9409 10.0016L24.9151 10.0247C24.9114 10.0358 24.9114 10.0479 24.9093 10.061L24.9114 10.0658C24.9528 10.2774 24.9429 10.2302 24.9844 10.5641C25.0038 10.728 25.0296 10.8928 25.049 11.0547C25.0816 11.3256 25.0999 11.459 25.1399 11.8724C24.9161 12.2416 24.8632 12.3813 24.6478 12.7053L24.6493 12.7085L24.4976 12.9483C24.4803 12.9736 24.4646 12.991 24.4425 12.9983C24.4183 13.0103 24.3868 13.0125 24.3431 13.0125H24.2591L24.1342 13.4279L24.5627 13.4353C24.8142 13.4342 24.9723 13.3166 25.0574 13.1585L25.3269 12.6968H25.3226L25.3509 12.6643C25.5322 12.2741 26.9107 9.90926 26.9107 9.90926ZM22.3885 15.3653H22.2068L22.8795 13.1401H23.1027L23.1736 12.9109L23.1804 13.1658C23.1721 13.3234 23.296 13.463 23.6217 13.4399H23.9982L24.1278 13.0115H23.9861C23.9047 13.0115 23.8669 12.9909 23.8716 12.9468L23.8647 12.6874H23.1674V12.6888C22.9419 12.6935 22.2686 12.7104 22.1323 12.7467C21.9673 12.7892 21.7935 12.9143 21.7935 12.9143L21.8618 12.6848H21.2095L21.0736 13.1401L20.3918 15.3993H20.2595L20.1298 15.8247H21.429L21.3855 15.9665H22.0257L22.0682 15.8247H22.2478L22.3885 15.3653ZM21.8555 13.5922C21.751 13.6212 21.5566 13.7088 21.5566 13.7088L21.7295 13.1401H22.2478L22.1227 13.5545C22.1227 13.5545 21.9626 13.5639 21.8555 13.5922ZM21.8654 14.4047C21.8654 14.4047 21.7026 14.4251 21.5955 14.4493C21.4899 14.4813 21.292 14.5821 21.292 14.5821L21.4706 13.9903H21.9915L21.8654 14.4047ZM21.575 15.3705H21.0551L21.2059 14.8711H21.7241L21.575 15.3705ZM22.827 13.9903H23.5764L23.4687 14.3391H22.7094L22.5954 14.7204H23.2598L22.7567 15.4287C22.7215 15.4808 22.6899 15.4992 22.6548 15.5138C22.6196 15.5317 22.5733 15.5527 22.5198 15.5527H22.3355L22.2089 15.9703H22.691C22.9416 15.9703 23.0896 15.8563 23.1989 15.7066L23.5439 15.2345L23.618 15.7139C23.6337 15.8037 23.6982 15.8563 23.7419 15.8767C23.7902 15.9009 23.8401 15.9424 23.9105 15.9486C23.9861 15.9518 24.0407 15.9544 24.077 15.9544H24.3138L24.4561 15.4871H24.3626C24.309 15.4871 24.2166 15.4781 24.2009 15.4613C24.1852 15.4408 24.1852 15.4094 24.1767 15.3615L24.1016 14.881H23.7938L23.9288 14.7204H24.6867L24.8032 14.3391H24.1016L24.2109 13.9903H24.9104L25.0401 13.5603H22.9546L22.827 13.9903ZM16.4977 15.4676L16.6726 14.8858H17.3915L17.5229 14.453H16.8033L16.9132 14.0948H17.6163L17.7466 13.6758H15.9872L15.8597 14.0948H16.2594L16.1527 14.453H15.752L15.6191 14.8932H16.0187L15.7856 15.663C15.7541 15.7649 15.8004 15.8037 15.8297 15.8511C15.8597 15.8972 15.89 15.9277 15.9583 15.945C16.0288 15.9608 16.0771 15.9702 16.1427 15.9702H16.9531L17.0975 15.4908L16.7382 15.5401C16.6689 15.5401 16.4768 15.5318 16.4977 15.4676ZM16.5802 12.6821L16.398 13.0114C16.359 13.0833 16.3239 13.128 16.2923 13.1485C16.2645 13.1659 16.2094 13.1731 16.1295 13.1731H16.0345L15.9074 13.5943H16.2231C16.3749 13.5943 16.4914 13.5387 16.5471 13.5108C16.6069 13.4788 16.6227 13.4971 16.6689 13.4525L16.7755 13.3601H17.7613L17.8921 12.9216H17.1705L17.2965 12.6821H16.5802ZM18.0354 15.4761C18.0186 15.4519 18.0307 15.4093 18.0564 15.3205L18.3258 14.4288H19.2843C19.424 14.4268 19.5248 14.4251 19.5904 14.4204C19.6609 14.413 19.7375 14.3879 19.821 14.3427C19.9071 14.2954 19.9512 14.2455 19.9885 14.1883C20.03 14.1311 20.0967 14.0061 20.154 13.8133L20.4926 12.6848L19.498 12.6906C19.498 12.6906 19.1918 12.7357 19.0569 12.7856C18.9209 12.8413 18.7265 12.9967 18.7265 12.9967L18.8163 12.6873H18.2019L17.3417 15.5401C17.3112 15.6509 17.2908 15.7313 17.2861 15.7795C17.2844 15.8316 17.3517 15.883 17.3952 15.9219C17.4467 15.9607 17.5228 15.9544 17.5958 15.9607C17.6726 15.9665 17.7817 15.9702 17.9325 15.9702H18.4046L18.5495 15.4808L18.1269 15.5207C18.0817 15.5207 18.049 15.4965 18.0354 15.4761ZM18.4997 13.8265H19.5064L19.4424 14.0271C19.4334 14.0318 19.4119 14.0171 19.3094 14.0292H18.4377L18.4997 13.8265ZM18.7013 13.1537H19.7165L19.6435 13.3953C19.6435 13.3953 19.165 13.3906 19.0884 13.4047C18.7512 13.4631 18.5543 13.6432 18.5543 13.6432L18.7013 13.1537ZM19.4649 14.6988C19.4566 14.7288 19.4434 14.747 19.425 14.7608C19.4045 14.7739 19.3715 14.7786 19.3221 14.7786H19.1787L19.1872 14.5344H18.5905L18.5663 15.7286C18.5654 15.8148 18.5737 15.8647 18.6367 15.9046C18.6998 15.9545 18.8941 15.9608 19.1556 15.9608H19.5294L19.6644 15.5138L19.3389 15.5316L19.2307 15.538C19.2159 15.5316 19.2018 15.5259 19.1861 15.5101C19.1724 15.4966 19.1492 15.5049 19.153 15.4187L19.1556 15.1126L19.4969 15.0985C19.6812 15.0985 19.76 15.0385 19.8272 14.9814C19.8914 14.9267 19.9123 14.8637 19.9365 14.7786L19.9938 14.5076H19.5247L19.4649 14.6988Z" fill="#FEFEFE"/>
</svg>
